<?xml version="1.0" encoding="iso-8859-1"?>
<!-- Generator: Adobe Illustrator 16.0.0, SVG Export Plug-In . SVG Version: 6.00 Build 0)  -->
<!DOCTYPE svg PUBLIC "-//W3C//DTD SVG 1.1//EN" "http://www.w3.org/Graphics/SVG/1.1/DTD/svg11.dtd">
<svg version="1.1" id="Capa_1" xmlns="http://www.w3.org/2000/svg" xmlns:xlink="http://www.w3.org/1999/xlink" x="0px" y="0px"
	 width="450.791px" height="450.792px" viewBox="0 0 450.791 450.792" style="enable-background:new 0 0 450.791 450.792;"
	 xml:space="preserve">
<g>
	<path fill="#00a1e1" d="M225.395,0C101.113,0,0,101.112,0,225.392c0,124.285,101.113,225.398,225.395,225.398
		c124.282,0,225.396-101.113,225.396-225.398C450.791,101.112,349.677,0,225.395,0z M225.395,428.375
		c-111.92,0-202.981-91.054-202.981-202.983c0-111.924,91.061-202.978,202.981-202.978c111.922,0,202.98,91.054,202.98,202.978
		C428.375,337.322,337.316,428.375,225.395,428.375z M339.446,157.422c0,19.628-15.912,35.541-35.542,35.541
		c-19.634,0-35.546-15.912-35.546-35.541s15.912-35.543,35.546-35.543C323.534,121.878,339.446,137.793,339.446,157.422z
		 M118.557,157.422c0-19.628,15.912-35.543,35.542-35.543c19.627,0,35.543,15.915,35.543,35.543s-15.917,35.541-35.543,35.541
		C134.469,192.962,118.557,177.05,118.557,157.422z M312.058,258.125H138.734c-9.269,0-16.809,7.54-16.809,16.811
		c0,53.299,46.416,96.657,103.475,96.657c57.054,0,103.467-43.358,103.467-96.657C328.867,265.666,321.326,258.125,312.058,258.125z
		 M225.395,354.784c-47.785,0-86.665-35.82-86.665-79.848h173.328C312.058,318.963,273.187,354.784,225.395,354.784z"/>
</g>
<g>
</g>
<g>
</g>
<g>
</g>
<g>
</g>
<g>
</g>
<g>
</g>
<g>
</g>
<g>
</g>
<g>
</g>
<g>
</g>
<g>
</g>
<g>
</g>
<g>
</g>
<g>
</g>
<g>
</g>
</svg>
